<svg xmlns="http://www.w3.org/2000/svg" width="28.304" height="21.046" viewBox="0 0 28.304 21.046">
  <path id="_70562" data-name="70562" d="M24.945,45.945H3.359A3.267,3.267,0,0,0,0,49.1V63.832a3.267,3.267,0,0,0,3.359,3.158H24.945A3.267,3.267,0,0,0,28.3,63.832V49.1A3.267,3.267,0,0,0,24.945,45.945Zm0,18.257H3.359c-.272,0-.511-.173-.511-.37V51.051l9.762,8.069a1.127,1.127,0,0,0,.717.257h1.649a1.127,1.127,0,0,0,.717-.257l9.763-8.069V63.832C25.456,64.029,25.217,64.2,24.945,64.2ZM14.152,56.608l-9.5-7.874h18.99Z" transform="translate(0 -45.945)" fill="#e4e4e4"/>
</svg>
